<svg preserveAspectRatio="none" overflow="visible" style="display: block;" width="58" height="58" viewBox="0 0 58 58" fill="none" xmlns="http://www.w3.org/2000/svg">
<g id="Vector / Voice Orb Mic">
<path id="Vector" d="M36.25 12.0833C36.25 8.07927 33.0041 4.83333 29 4.83333C24.9959 4.83333 21.75 8.07927 21.75 12.0833V26.5833C21.75 30.5874 24.9959 33.8333 29 33.8333C33.0041 33.8333 36.25 30.5874 36.25 26.5833V12.0833Z" stroke="#173B70" stroke-width="3" stroke-linecap="round" stroke-linejoin="round"/>
<path id="Vector_2" d="M45.9167 24.1667C45.9167 28.6532 44.1344 32.9561 40.9619 36.1286C37.7894 39.301 33.4866 41.0833 29 41.0833C24.5134 41.0833 20.2106 39.301 17.0381 36.1286C13.8656 32.9561 12.0833 28.6532 12.0833 24.1667M29 41.0833V53.1667M19.3333 53.1667H38.6667" stroke="#173B70" stroke-width="3" stroke-linecap="round" stroke-linejoin="round"/>
</g>
</svg>
